<svg height="512pt" viewBox="0 0 512.00054 512" width="512pt" xmlns="http://www.w3.org/2000/svg"><path d="m437.015625 74.980469c-99.972656-99.972657-262.0625-99.972657-362.035156 0-99.972657 99.972656-99.972657 262.0625 0 362.035156 99.972656 99.972656 262.0625 99.972656 362.035156 0s99.972656-262.0625 0-362.035156zm0 0" fill="#ebebeb"/><path d="m437.019531 74.980469c-53.917969-53.921875-125.90625-78.742188-196.472656-74.5 60.273437 3.621093 119.511719 28.441406 165.566406 74.496093 99.976563 99.976563 99.976563 262.066407 0 362.039063-46.054687 46.054687-105.292969 70.878906-165.566406 74.5 70.566406 4.238281 142.554687-20.578125 196.472656-74.5 99.972657-99.972656 99.972657-262.0625 0-362.035156zm0 0" fill="#dedcda"/><path d="m1.933594 246.066406c59.113281 14.742188 117.886718 47.265625 167.308594 96.6875 49.421874 49.425782 81.949218 108.199219 96.6875 167.3125 2.164062-68.207031-22.777344-137.109375-74.832032-189.164062-52.058594-52.054688-120.957031-76.996094-189.164062-74.835938zm0 0" fill="#dedcda"/><path d="m511.980469 258.398438c-.039063 5.007812-.230469 10.007812-.570313 15-3.230468.121093-6.460937.179687-9.679687.179687-32.320313 0-63.9375-5.839844-94.160157-17.410156-34.609374-13.25-65.550781-33.359375-91.96875-59.769531-26.410156-26.421876-46.519531-57.359376-59.769531-91.96875-12.722656-33.230469-18.519531-68.160157-17.230469-103.84375 5-.339844 10-.5273442 15.007813-.5664068.011719.1484378.011719.2968748 0 .4570308-1.296875 33.882813 4.160156 67.050782 16.222656 98.582032 12.5 32.640625 31.460938 61.820312 56.378907 86.730468 24.910156 24.917969 54.089843 43.878907 86.730468 56.367188 31.53125 12.070312 64.699219 17.542969 98.578125 16.230469.160157-.007813.3125-.007813.460938.011719zm0 0" fill="#e53935"/><path d="m273.402344 511.40625c-5 .339844-10 .53125-15.011719.570312-.007813-.148437-.007813-.296874 0-.457031 1.300781-33.882812-4.160156-67.050781-16.21875-98.582031-12.5-32.640625-31.460937-61.820312-56.378906-86.730469-24.910157-24.917969-54.09375-43.878906-86.730469-56.371093-31.53125-12.066407-64.703125-17.539063-98.582031-16.226563-.160157.007813-.308594.007813-.4609378-.011719.0429688-5.011718.2304688-10.011718.5703128-15 35.679687-1.289062 70.609375 4.511719 103.839844 17.230469 34.613281 13.25 65.550781 33.359375 91.972656 59.769531 26.410156 26.421875 46.519531 57.359375 59.769531 91.96875 12.71875 33.230469 18.519531 68.160156 17.230469 103.839844zm0 0" fill="#e53935"/><g fill="#f44336"><path d="m84.058594 225.921875-14.988282 55.925781c-2.199218 8.207032-10.714843 13.125-18.925781 10.925782-8.207031-2.199219-13.125-10.714844-10.925781-18.925782l14.984375-55.925781c2.199219-8.207031 10.71875-13.125 18.925781-10.925781 8.210938 2.199218 13.128906 10.714844 10.929688 18.925781zm0 0"/><path d="m157.167969 258.253906-26.058594 51.699219c-3.828125 7.589844-13.167969 10.667969-20.753906 6.84375-7.589844-3.824219-10.671875-13.164063-6.84375-20.753906l26.058593-51.699219c3.828126-7.589844 13.167969-10.671875 20.753907-6.84375 7.589843 3.824219 10.671875 13.164062 6.84375 20.753906zm0 0"/><path d="m286.078125 427.941406-55.925781 14.984375c-8.210938 2.199219-13.125 10.71875-10.925782 18.925781 2.199219 8.210938 10.714844 13.128907 18.925782 10.929688l55.921875-14.988281c8.210937-2.199219 13.128906-10.714844 10.929687-18.925781-2.199218-8.207032-10.71875-13.125-18.925781-10.925782zm0 0"/><path d="m253.746094 354.828125-51.699219 26.0625c-7.589844 3.828125-10.671875 13.164063-6.84375 20.753906 3.824219 7.589844 13.164063 10.667969 20.753906 6.84375l51.699219-26.0625c7.589844-3.824219 10.667969-13.164062 6.84375-20.753906s-13.164062-10.667969-20.753906-6.84375zm0 0"/><path d="m222.300781 311.550781-40.941406 40.941407c-6.007813 6.007812-15.84375 6.007812-21.851563 0-6.011718-6.011719-6.011718-15.84375 0-21.855469l40.941407-40.9375c6.007812-6.011719 15.84375-6.011719 21.851562 0 6.011719 6.007812 6.011719 15.839843 0 21.851562zm0 0"/><path d="m225.925781 84.054688 55.925781-14.984376c8.207032-2.203124 13.125-10.71875 10.925782-18.925781-2.199219-8.210937-10.714844-13.128906-18.925782-10.929687l-55.925781 14.984375c-8.207031 2.203125-13.125 10.71875-10.925781 18.925781 2.199219 8.210938 10.714844 13.128906 18.925781 10.929688zm0 0"/><path d="m258.257812 157.164062 51.699219-26.058593c7.589844-3.828125 10.667969-13.164063 6.84375-20.753907-3.828125-7.589843-13.164062-10.667968-20.753906-6.84375l-51.703125 26.0625c-7.585938 3.824219-10.667969 13.164063-6.839844 20.753907 3.824219 7.585937 13.164063 10.667969 20.753906 6.839843zm0 0"/><path d="m427.945312 286.074219 14.984376-55.925781c2.199218-8.207032 10.714843-13.125 18.925781-10.925782 8.210937 2.199219 13.125 10.714844 10.925781 18.925782l-14.984375 55.925781c-2.199219 8.207031-10.714844 13.125-18.925781 10.925781-8.210938-2.199219-13.125-10.71875-10.925782-18.925781zm0 0"/><path d="m354.832031 253.742188 26.0625-51.699219c3.824219-7.589844 13.164063-10.671875 20.753907-6.84375 7.589843 3.824219 10.667968 13.164062 6.84375 20.753906l-26.0625 51.699219c-3.824219 7.589844-13.164063 10.671875-20.753907 6.84375-7.589843-3.824219-10.667969-13.164063-6.84375-20.753906zm0 0"/><path d="m311.554688 222.296875 40.9375-40.9375c6.011718-6.011719 6.011718-15.84375 0-21.855469-6.007813-6.007812-15.84375-6.007812-21.851563 0l-40.941406 40.941406c-6.007813 6.007813-6.007813 15.84375 0 21.851563 6.011719 6.011719 15.84375 6.011719 21.855469 0zm0 0"/></g></svg>